<?xml version="1.0" encoding="iso-8859-1"?>
<!DOCTYPE svg PUBLIC "-//W3C//DTD SVG 1.1//EN" "http://www.w3.org/Graphics/SVG/1.1/DTD/svg11.dtd">
<svg 
 version="1.1" xmlns="http://www.w3.org/2000/svg" xmlns:xlink="http://www.w3.org/1999/xlink" x="0px" y="0px" width="512px"
	 height="512px" viewBox="0 0 512 512" enable-background="new 0 0 512 512" xml:space="preserve"
><g id="5151e0c8492e5103c096af88a5220312"><g></g><path display="inline" d="M414.586,106.224H97.414L256,0.5L414.586,106.224z M256,511.5l158.586-105.725H97.414L256,511.5z
		 M323.327,234.132l-9.826,41.302h31.153v34.708h-39.726l-14.221,60.392h-43.28l14.217-60.392h-38.052l-14.429,60.392h-43.28
		l14.217-60.392h-27.182v-34.708h35.755l9.827-41.302h-31.363v-34.534h39.728l14.217-58.134h43.281l-14.217,58.134h38.259
		l14.431-58.134H345.7l-14.221,58.134h27.602v34.534H323.327z M280.043,234.132h-38.262l-9.827,41.302h37.847L280.043,234.132z"></path></g></svg>